<svg width="12" height="9" viewBox="0 0 12 9" fill="none" xmlns="http://www.w3.org/2000/svg">
<path d="M1.97287 7.33792L4.60784 5.91997C4.28691 6.4939 3.83086 6.98343 3.25657 7.40544C2.68228 7.84433 2.14178 8.04689 1.65194 8.04689C1.21278 8.04689 0.874962 7.86121 0.621599 7.48984C0.368236 7.11847 0.25 6.61206 0.25 5.97061C0.25 5.43044 0.351345 4.83963 0.587817 4.19817C0.807398 3.55672 1.11143 2.93215 1.51681 2.34134C1.97287 1.66612 2.47959 1.12595 3.0201 0.737704C3.56061 0.349456 4.08422 0.146892 4.59095 0.146892C4.94566 0.146892 5.2328 0.265054 5.45238 0.484499C5.67196 0.703944 5.7902 0.990909 5.7902 1.32852C5.7902 2.12189 5.38482 2.78023 4.57406 3.30352C3.7633 3.84369 2.80052 4.13065 1.68572 4.18129C1.58438 4.46826 1.51681 4.73835 1.48303 4.97467C1.44925 5.211 1.43236 5.43044 1.43236 5.633C1.43236 6.00437 1.46614 6.34198 1.56749 6.64582C1.66883 6.94967 1.80396 7.186 1.97287 7.33792ZM4.70919 1.37916C4.70919 1.17659 4.6754 0.990909 4.60784 0.855867C4.54028 0.720824 4.42204 0.619542 4.28691 0.55202C3.86464 0.703943 3.3917 1.12595 2.88497 1.83493C2.37825 2.5439 1.98976 3.30352 1.7195 4.09689C2.6485 3.79305 3.37481 3.38792 3.91532 2.89839C4.43893 2.42574 4.70919 1.91933 4.70919 1.37916Z" fill="#2E2E2B"/>
<path d="M8.10804 1.74266C8.10804 0.807723 8.86736 0.0498047 9.80402 0.0498047C10.7407 0.0498047 11.5 0.807723 11.5 1.74266C11.5 2.6776 10.7407 3.43552 9.80402 3.43552C8.86736 3.43552 8.10804 2.6776 8.10804 1.74266Z" fill="#FF4F00"/>
<path d="M8.10804 4.56409H11.5V7.94981H8.10804V4.56409Z" fill="#FF4F00"/>
</svg>
